<?xml version="1.0" standalone="no"?>
<!DOCTYPE svg PUBLIC "-//W3C//DTD SVG 1.1//EN" "http://www.w3.org/Graphics/SVG/1.1/DTD/svg11.dtd" >
<svg xmlns="http://www.w3.org/2000/svg">
<metadata>Generated by IcoMoon</metadata>
<defs>
<font id="icomoon" horiz-adv-x="1024">
<font-face units-per-em="1024" ascent="960" descent="-64" />
<missing-glyph horiz-adv-x="1024" />
<glyph unicode="&#x20;" horiz-adv-x="512" d="" />
<glyph unicode="&#xe900;" glyph-name="adpt_arrow_down" d="M522.88 134.912l-522.88 544.384 92.288 88.704 430.592-448.384 430.72 448.384 92.16-88.704z" />
<glyph unicode="&#xe901;" glyph-name="adpt_close_burger" horiz-adv-x="1034" d="M1033.522 887.205l-71.976 72.795-444.759-439.998-444.81 439.998-71.976-72.795 443.991-439.23-443.991-439.179 71.976-72.795 444.81 439.998 444.759-439.998 71.976 72.795-443.991 439.179z" />
<glyph unicode="&#xe902;" glyph-name="adpt_close_burger_red" horiz-adv-x="1034" d="M1033.522 887.205l-71.976 72.795-444.759-439.998-444.81 439.998-71.976-72.795 443.991-439.23-443.991-439.179 71.976-72.795 444.81 439.998 444.759-439.998 71.976 72.795-443.991 439.179z" />
<glyph unicode="&#xe903;" glyph-name="adpt_filter" d="M502.579 806.4c-21.197 59.443-77.517 102.4-144.179 102.4s-122.982-42.957-144.179-102.4h-214.221v-102.4h214.221c21.197-59.443 77.517-102.4 144.179-102.4s122.982 42.957 144.179 102.4h521.421v102.4h-521.421zM358.4 704c-28.262 0-51.2 22.989-51.2 51.2s22.938 51.2 51.2 51.2 51.2-22.989 51.2-51.2-22.938-51.2-51.2-51.2zM358.4 294.4c-66.662 0-122.982-42.957-144.179-102.4h-214.221v-102.4h214.221c21.197-59.443 77.517-102.4 144.179-102.4s122.982 42.957 144.179 102.4h521.421v102.4h-521.421c-21.197 59.443-77.517 102.4-144.179 102.4zM358.4 89.6c-28.262 0-51.2 22.989-51.2 51.2s22.938 51.2 51.2 51.2 51.2-22.989 51.2-51.2-22.938-51.2-51.2-51.2zM665.6 601.6c-66.662 0-122.982-42.957-144.179-102.4h-521.421v-102.4h521.421c21.197-59.443 77.517-102.4 144.179-102.4s122.982 42.957 144.179 102.4h214.221v102.4h-214.221c-21.197 59.443-77.517 102.4-144.179 102.4zM665.6 396.8c-28.262 0-51.2 22.989-51.2 51.2s22.938 51.2 51.2 51.2 51.2-22.989 51.2-51.2-22.938-51.2-51.2-51.2z" />
<glyph unicode="&#xe904;" glyph-name="adpt_filter_vibrano" d="M432.583-3.47l-432.583 467.513 167.026 154.51 265.785-287.175 477.412 514.844 166.912-154.738z" />
<glyph unicode="&#xe905;" glyph-name="adpt_profile" d="M700.473 382.066c71.396 55.41 114.176 145.749 114.176 259.015 0.057 190.748-119.353 318.919-297.017 318.919s-297.074-128.171-297.074-318.919c0-113.266 42.837-203.605 114.176-259.015-175.047-40.277-306.29-199.339-306.29-389.177 0-31.403 25.429-56.889 56.889-56.889h864.54c31.46 0 56.889 25.486 56.889 56.889 0 189.838-131.186 348.9-306.29 389.177zM517.632 846.222c170.041 0 183.296-157.013 183.296-205.141s-13.198-205.198-183.296-205.198-183.296 157.070-183.296 205.198 13.255 205.141 183.296 205.141zM147.797 49.778c25.884 130.276 138.809 228.636 273.806 228.636h192.114c134.94 0 247.865-98.361 273.806-228.636h-739.726z" />
<glyph unicode="&#xe906;" glyph-name="adpt_search" horiz-adv-x="1043" d="M1025.138 33.849l-218.852 210.773c58.539 75.093 93.753 168.789 93.753 270.62 0.057 245.248-201.842 444.757-449.991 444.757s-450.048-199.509-450.048-444.757c0-245.191 201.899-444.644 450.048-444.644 103.822 0 199.282 35.271 275.513 93.81l220.672-212.48c11.036-10.695 25.259-15.929 39.481-15.929 14.905 0 29.81 5.86 40.96 17.465 21.788 22.585 21.106 58.596-1.536 80.384zM113.778 515.243c0 182.5 150.869 330.98 336.27 330.98s336.27-148.423 336.27-330.923c0-182.443-150.869-330.866-336.27-330.866s-336.27 148.366-336.27 330.809z" />
<glyph unicode="&#xe907;" glyph-name="arrow_big" d="M422.751 215.493l-22.031 19.251 181.994 208.325-190.61 218.171 22.031 19.266 207.448-237.436z" />
<glyph unicode="&#xe908;" glyph-name="card_cart" d="M1028.15 841.378c-10.186 13.15-25.923 20.911-42.631 20.911l-749.999 0.108c-10.941 41.607-48.451 70.656-91.244 70.656h-90.381c-29.804 0-53.895-24.091-53.895-53.895s24.091-53.895 53.895-53.895h79.926l135.437-514.856c15.683-59.5 69.309-101.107 130.425-101.107h504.778c29.804 0 53.895 24.091 53.895 53.895s-24.091 53.895-53.895 53.895h-504.778c-12.234 0-23.013 8.515-26.193 20.749l-26.516 100.837h523.911c44.84 0 82.728 27.648 91.944 66.237l74.914 290.008c4.15 16.115 0.647 33.307-9.593 46.457zM862.208 546.466h-543.582l-54.703 208.034h652.019l-53.733-208.034zM377.91 127.219c-44.733 0-81.004-36.756-81.004-82.136s36.271-82.136 81.004-82.136c44.733 0 81.004 36.756 81.004 82.136 0.054 45.325-36.217 82.136-81.004 82.136zM904.461 45.083c0-45.362-36.267-82.136-81.004-82.136s-81.004 36.773-81.004 82.136c0 45.362 36.267 82.136 81.004 82.136s81.004-36.773 81.004-82.136z" />
<glyph unicode="&#xe909;" glyph-name="card_del" horiz-adv-x="1006" d="M1005.853 857.629l-104.639 102.371-398.287-407.361-398.287 407.361-104.639-102.371 400.629-409.629-400.629-409.702 104.639-102.298 398.287 407.361 398.287-407.361 104.639 102.298-400.556 409.702z" />
<glyph unicode="&#xe90a;" glyph-name="card_minus" d="M0 512h1024v-128h-1024v128z" />
<glyph unicode="&#xe90b;" glyph-name="card_photo" d="M934.957 670.609h-97.057c-21.237 0-39.491 14.959-43.676 35.795l-30.186 151.018c-4.185 20.836-22.439 35.795-43.676 35.795h-416.723c-21.237 0-39.491-14.959-43.676-35.795l-30.186-151.018c-4.185-20.836-22.439-35.795-43.676-35.795h-97.057c-49.197 0-89.043-39.847-89.043-89.043v-489.739c0-49.197 39.847-89.043 89.043-89.043h845.913c49.197 0 89.043 39.847 89.043 89.043v489.739c0 49.197-39.847 89.043-89.043 89.043zM512 203.13c-98.349 0-178.087 79.738-178.087 178.087s79.738 178.087 178.087 178.087 178.087-79.738 178.087-178.087-79.738-178.087-178.087-178.087z" />
<glyph unicode="&#xe90c;" glyph-name="card_plus" d="M1024 512h-448v448h-128v-448h-448v-128h448v-448h128v448h448z" />
<glyph unicode="&#xe90d;" glyph-name="card_rew" d="M629.76 351.646h-69.144c154.283 15.604 252.002 131.023 252.002 303.202 0 185.393-113.274 305.152-288.475 305.152s-288.475-119.759-288.475-305.152c0-172.13 97.719-287.549 252.002-303.202h-69.144c-217.332 0-394.142-175.543-394.142-391.266v-24.381h999.522v24.381c0 215.723-176.811 391.266-394.142 391.266zM284.428 654.848c0 123.953 62.952 256.39 239.714 256.39s239.714-132.437 239.714-256.39-62.952-256.39-239.714-256.39-239.714 132.437-239.714 256.39zM73.972-15.238c12.678 177.542 162.328 318.123 344.503 318.123h211.237c182.174 0 331.874-140.581 344.503-318.123h-900.242z" />
<glyph unicode="&#xe90e;" glyph-name="card_star_bigest" d="M534.955 926.080l140.971-287.744c3.285-6.699 9.643-11.307 17.024-12.373l317.227-45.141c18.517-2.645 25.899-25.387 12.459-38.4l-230.101-222.976c-5.333-5.163-7.765-12.672-6.485-20.011l55.083-315.648c3.2-18.432-16.128-32.469-32.683-23.723l-283.179 149.931c-6.571 3.499-14.464 3.499-21.035 0l-283.179-149.931c-16.512-8.747-35.883 5.333-32.683 23.723l55.083 315.648c1.28 7.339-1.152 14.848-6.485 20.011l-230.101 222.933c-13.44 13.013-6.016 35.755 12.459 38.4l317.227 45.141c7.381 1.067 13.739 5.675 17.024 12.373l140.971 287.744c8.235 16.811 32.171 16.811 40.405 0.043z" />
<glyph unicode="&#xe90f;" glyph-name="card_starggrey_big" d="M527.189 919.154l138.923-283.591c3.243-6.599 9.5-11.15 16.782-12.174l312.661-44.487c18.261-2.617 25.543-25.031 12.288-37.831l-226.759-219.762c-5.291-5.12-7.68-12.516-6.428-19.74l54.272-311.068c3.186-18.148-15.929-32.028-32.199-23.381l-279.040 147.74c-6.485 3.413-14.222 3.413-20.764 0l-279.097-147.797c-16.27-8.647-35.385 5.234-32.199 23.381l54.272 311.068c1.252 7.225-1.138 14.62-6.428 19.74l-226.702 219.762c-13.255 12.8-5.916 35.271 12.288 37.831l312.661 44.487c7.282 1.024 13.54 5.575 16.782 12.174l138.923 283.591c8.078 16.612 31.687 16.612 39.765 0.057z" />
<glyph unicode="&#xe910;" glyph-name="card_up" d="M281.307-7.753l33.792-8.411c49.591-21.065 122.222-47.835 172.544-47.835h268.727c3.218 0 6.217 0.731 8.923 1.975 40.302 8.558 70.583 44.325 70.583 87.113 0 17.115-5.047 32.987-13.458 46.592l8.119 15.579c26.405 17.774 43.739 47.835 43.739 81.92 0 23.771-8.777 45.349-22.894 62.391 9.216 3.803 17.408 9.143 24.942 15.36 1.39 1.024 2.56 1.829 3.584 2.926 20.041 18.066 32.914 43.959 32.914 73.070 0 27.063-10.971 51.566-28.672 69.413 28.599 17.335 47.909 48.421 47.909 84.187 0 48.859-35.694 89.234-82.286 97.134-2.999 1.536-6.29 2.487-9.728 2.487h-165.961l0.512 1.317c36.937 89.454 75.191 181.979 45.202 289.134-20.187 72.192-76.727 98.523-119.954 92.526-34.377-4.681-57.49-28.818-57.49-59.977 0-201.947-123.538-386.194-256.439-404.992-85.285-11.995-212.773-27.502-212.773-27.502v-503.881l208.165 29.477z" />
<glyph unicode="&#xe911;" glyph-name="card_up_hover" d="M281.307-7.753l33.792-8.411c49.591-21.065 122.222-47.835 172.544-47.835h268.727c3.218 0 6.217 0.731 8.923 1.975 40.302 8.558 70.583 44.325 70.583 87.113 0 17.115-5.047 32.987-13.458 46.592l8.119 15.579c26.405 17.774 43.739 47.835 43.739 81.92 0 23.771-8.777 45.349-22.894 62.391 9.216 3.803 17.408 9.143 24.942 15.36 1.39 1.024 2.56 1.829 3.584 2.926 20.041 18.066 32.914 43.959 32.914 73.070 0 27.063-10.971 51.566-28.672 69.413 28.599 17.335 47.909 48.421 47.909 84.187 0 48.859-35.694 89.234-82.286 97.134-2.999 1.536-6.29 2.487-9.728 2.487h-165.961l0.512 1.317c36.937 89.454 75.191 181.979 45.202 289.134-20.187 72.192-76.727 98.523-119.954 92.526-34.377-4.681-57.49-28.818-57.49-59.977 0-201.947-123.538-386.194-256.439-404.992-85.285-11.995-212.773-27.502-212.773-27.502v-503.881l208.165 29.477z" />
<glyph unicode="&#xe912;" glyph-name="cart" d="M1028.15 841.378c-10.186 13.15-25.923 20.911-42.631 20.911l-749.999 0.108c-10.941 41.607-48.451 70.656-91.244 70.656h-90.381c-29.804 0-53.895-24.091-53.895-53.895s24.091-53.895 53.895-53.895h79.926l135.437-514.856c15.683-59.5 69.309-101.107 130.425-101.107h504.778c29.804 0 53.895 24.091 53.895 53.895s-24.091 53.895-53.895 53.895h-504.778c-12.234 0-23.013 8.515-26.193 20.749l-26.516 100.837h523.911c44.84 0 82.728 27.648 91.944 66.237l74.914 290.008c4.15 16.115 0.647 33.307-9.593 46.457zM862.208 546.466h-543.582l-54.703 208.034h652.019l-53.733-208.034zM377.91 127.219c-44.733 0-81.004-36.756-81.004-82.136s36.271-82.136 81.004-82.136c44.733 0 81.004 36.756 81.004 82.136 0.054 45.325-36.217 82.136-81.004 82.136zM904.461 45.083c0-45.362-36.267-82.136-81.004-82.136s-81.004 36.773-81.004 82.136c0 45.362 36.267 82.136 81.004 82.136s81.004-36.773 81.004-82.136z" />
<glyph unicode="&#xe913;" glyph-name="catalog_arrow" d="M350.72-14.234l-77.21 67.379 357.99 409.702-375.501 429.773 77.21 67.379 434.278-497.152z" />
<glyph unicode="&#xe914;" glyph-name="close-24px" d="M810.667 686.507l-60.16 60.16-238.507-238.507-238.507 238.507-60.16-60.16 238.507-238.507-238.507-238.507 60.16-60.16 238.507 238.507 238.507-238.507 60.16 60.16-238.507 238.507z" />
<glyph unicode="&#xe915;" glyph-name="search" horiz-adv-x="1026" d="M1007.104 45.696l-206.976 202.944c55.232 74.304 88.32 166.016 88.32 265.6 0.064 245.824-199.232 445.76-444.224 445.76s-444.224-199.936-444.224-445.76 199.296-445.76 444.224-445.76c99.712 0 191.488 33.472 265.664 89.344l207.552-203.52c12.48-12.224 28.608-18.304 44.8-18.304 16.576 0 33.152 6.464 45.696 19.2 24.832 25.216 24.384 65.728-0.832 90.496zM128 514.24c0 175.168 141.888 317.76 316.224 317.76s316.224-142.592 316.224-317.76c0-87.744-35.584-167.232-92.992-224.768-0.064-0.064-0.192-0.064-0.256-0.128 0 0 0-0.064-0.064-0.064-57.152-57.344-135.936-92.8-222.912-92.8-174.336 0-316.224 142.592-316.224 317.76z" />
<glyph unicode="&#xe916;" glyph-name="catalog_close" d="M1013.658 821.248l-150.63 138.752-330.65-358.605-330.547 358.605-150.63-138.752 341.914-370.893-341.914-370.79 150.63-138.854 330.547 358.605 330.65-358.605 150.63 138.854-341.914 370.79z" />
<glyph unicode="&#xe917;" glyph-name="catalog_ok" d="M432.583-3.584l-432.583 467.627 167.026 154.51 265.785-287.175 477.525 514.844 166.798-154.738z" />
<glyph unicode="&#xe918;" glyph-name="catalog_paginator" d="M369.92-28.8l-96.512 84.224 349.568 400.128-367.104 420.224 96.512 84.352 440.576-504.576z" />
<glyph unicode="&#xe919;" glyph-name="header_profile" d="M685.568 374.132c85.225 52.224 136.611 148.433 136.611 271.267 0.047 188.183-119.994 314.601-298.589 314.601s-298.636-126.417-298.636-314.554c0-122.833 51.386-219.089 136.611-271.267-191.255-29.417-338.292-193.583-338.292-391.633 0-25.693 20.806-46.545 46.545-46.545h907.543c25.74 0 46.545 20.852 46.545 46.545 0 198.051-147.084 362.217-338.339 391.587zM523.59 866.909c151.552 0 205.545-114.409 205.545-221.463s-53.993-221.463-205.545-221.463-205.545 114.409-205.545 221.463 53.993 221.463 205.545 221.463zM119.948 29.091c22.668 145.455 149.83 257.117 302.825 257.117h201.635c152.995 0 280.157-111.663 302.825-257.117h-807.284z" />
<glyph unicode="&#xe91a;" glyph-name="adpt_addres" d="M522.957-64c-14.387 0-28.109 6.042-37.786 16.691-36.557 40.038-357.171 397.261-357.171 605.030 0 221.85 177.152 402.278 394.957 402.278s394.957-180.429 394.957-402.278c0-207.77-320.614-564.992-357.171-605.030-9.677-10.65-23.347-16.691-37.786-16.691zM522.957 857.6c-161.28 0-292.557-134.502-292.557-299.878 0-126.003 185.754-368.691 292.557-493.158 106.803 124.518 292.557 367.258 292.557 493.158 0 165.376-131.226 299.878-292.557 299.878zM694.835 557.722c0-96.962-76.953-175.565-171.878-175.565s-171.878 78.603-171.878 175.565c0 96.962 76.953 175.565 171.878 175.565s171.878-78.603 171.878-175.565z" />
<glyph unicode="&#xe91b;" glyph-name="card_vnalichii" d="M512 960c-282.77 0-512-229.23-512-512s229.23-512 512-512 512 229.23 512 512c0 282.77-229.23 512-512 512zM443.904 174.885l-278.089 300.544 107.374 99.328 170.862-184.613 306.907 330.971 107.301-99.474-414.354-446.757z" />
<glyph unicode="&#xe945;" glyph-name="envelop" d="M928 832h-832c-52.8 0-96-43.2-96-96v-640c0-52.8 43.2-96 96-96h832c52.8 0 96 43.2 96 96v640c0 52.8-43.2 96-96 96zM398.74 409.628l-270.74-210.892v501.642l270.74-290.75zM176.38 704h671.24l-335.62-252-335.62 252zM409.288 398.302l102.712-110.302 102.71 110.302 210.554-270.302h-626.528l210.552 270.302zM625.26 409.628l270.74 290.75v-501.642l-270.74 210.892z" />
<glyph unicode="&#xe958;" glyph-name="mobile" d="M736 960h-448c-52.8 0-96-43.2-96-96v-832c0-52.8 43.2-96 96-96h448c52.8 0 96 43.2 96 96v832c0 52.8-43.2 96-96 96zM384 912h256v-32h-256v32zM512 0c-35.346 0-64 28.654-64 64s28.654 64 64 64 64-28.654 64-64-28.654-64-64-64zM768 192h-512v640h512v-640z" />
</font>
</defs>
</svg>
