<svg width="30" height="30" viewBox="0 0 30 30" fill="none" xmlns="http://www.w3.org/2000/svg">
<path fill-rule="evenodd" clip-rule="evenodd" d="M15 6C10.0294 6 6 10.0294 6 15C6 19.9706 10.0294 24 15 24C19.9706 24 24 19.9706 24 15C24 10.0294 19.9706 6 15 6ZM4 15C4 8.92487 8.92487 4 15 4C21.0751 4 26 8.92487 26 15C26 21.0751 21.0751 26 15 26C8.92487 26 4 21.0751 4 15Z" fill="white"/>
<path fill-rule="evenodd" clip-rule="evenodd" d="M13.2847 8.28006C12.658 9.95111 12.25 12.3267 12.25 15C12.25 17.6733 12.658 20.0489 13.2847 21.7199C13.5994 22.5592 13.95 23.1688 14.2886 23.5507C14.6282 23.9338 14.8709 24 15 24C15.1291 24 15.3718 23.9338 15.7114 23.5507C16.05 23.1688 16.4006 22.5592 16.7153 21.7199C17.342 20.0489 17.75 17.6733 17.75 15C17.75 12.3267 17.342 9.95111 16.7153 8.28006C16.4006 7.44084 16.05 6.83116 15.7114 6.44926C15.3718 6.06619 15.1291 6 15 6C14.8709 6 14.6282 6.06619 14.2886 6.44926C13.95 6.83116 13.5994 7.44084 13.2847 8.28006ZM12.7921 5.12244C13.3497 4.49346 14.0936 4 15 4C15.9064 4 16.6503 4.49346 17.2079 5.12244C17.7666 5.75259 18.2241 6.60738 18.588 7.57781C19.3186 9.52604 19.75 12.1504 19.75 15C19.75 17.8496 19.3186 20.474 18.588 22.4222C18.2241 23.3926 17.7666 24.2474 17.2079 24.8776C16.6503 25.5065 15.9064 26 15 26C14.0936 26 13.3497 25.5065 12.7921 24.8776C12.2334 24.2474 11.7759 23.3926 11.412 22.4222C10.6814 20.474 10.25 17.8496 10.25 15C10.25 12.1504 10.6814 9.52604 11.412 7.57781C11.7759 6.60738 12.2334 5.75259 12.7921 5.12244Z" fill="white"/>
<path fill-rule="evenodd" clip-rule="evenodd" d="M14.9998 12.0869C11.6257 12.0869 8.53896 11.1791 6.50555 9.7267L7.66803 8.09923C9.2868 9.2555 11.9392 10.0869 14.9998 10.0869C18.0605 10.0869 20.7129 9.2555 22.3316 8.09923L23.4941 9.7267C21.4607 11.1791 18.3739 12.0869 14.9998 12.0869Z" fill="white"/>
<path fill-rule="evenodd" clip-rule="evenodd" d="M6.00143 19.806C8.06639 18.036 11.3719 17.0435 15 17.0435C18.6524 17.0435 21.9345 18.1345 23.9771 19.788L22.7187 21.3425C21.1091 20.0395 18.3042 19.0435 15 19.0435C11.6717 19.0435 8.89023 19.964 7.30301 21.3245L6.00143 19.806Z" fill="white"/>
</svg>
