<svg width="31" height="31" viewBox="0 0 31 31" fill="none" xmlns="http://www.w3.org/2000/svg">
<path fill-rule="evenodd" clip-rule="evenodd" d="M13 8C10.7909 8 9 9.79086 9 12V18C9 20.2091 10.7909 22 13 22H19C21.2091 22 23 20.2091 23 18V12C23 9.79086 21.2091 8 19 8H13ZM20 11C20.5523 11 21 10.5523 21 10C21 9.44771 20.5523 9 20 9C19.4477 9 19 9.44771 19 10C19 10.5523 19.4477 11 20 11ZM16 13C14.8954 13 14 13.8954 14 15C14 16.1046 14.8954 17 16 17C17.1046 17 18 16.1046 18 15C18 13.8954 17.1046 13 16 13ZM12 15C12 12.7909 13.7909 11 16 11C18.2091 11 20 12.7909 20 15C20 17.2091 18.2091 19 16 19C13.7909 19 12 17.2091 12 15Z" fill="white"/>
</svg>
