<svg width="27" height="27" viewBox="0 0 27 27" fill="none" xmlns="http://www.w3.org/2000/svg">
<path fill-rule="evenodd" clip-rule="evenodd" d="M4 6H23C23.221 6 23.4252 6.07167 23.5907 6.19302L14.3083 14.2294C13.8233 14.5901 13.177 14.5903 12.6907 14.2293L3.40932 6.19301C3.57482 6.07166 3.77904 6 4 6ZM3 19.361L10.0079 13.2292L3 7.16137V19.361ZM10.7711 13.89L3.48293 20.2672L3.03198 19.7519C3.14364 20.1822 3.53471 20.5 4 20.5H23C23.2741 20.5 23.5224 20.3897 23.703 20.2112L16.3541 13.7809L14.9498 14.9967L14.9401 15.0049C14.9352 15.009 14.9301 15.0129 14.9251 15.0168C14.077 15.6612 12.9229 15.6609 12.0743 15.017C12.0657 15.0105 12.0574 15.0037 12.0492 14.9967L10.7711 13.89ZM24 7.16137V19.1423L17.1175 13.12L24 7.16137ZM2 7C2 5.89543 2.89543 5 4 5H23C24.1046 5 25 5.89543 25 7V19.5C25 20.6046 24.1046 21.5 23 21.5H4C2.89543 21.5 2 20.6046 2 19.5V7Z" fill="#BDBDBD"/>
</svg>
