<svg width="21" height="20" xmlns="http://www.w3.org/2000/svg">
 <g id="Layer_1">
  <title>Layer 1</title>
  <path fill="#bc1b20" d="m10,1c0,-0.55228 0.4477,-1 1,-1c5.5228,0 10,4.47715 10,10c0,5.5228 -4.4772,10 -10,10c-0.5523,0 -1,-0.4477 -1,-1c0,-0.5523 0.4477,-1 1,-1c4.4183,0 8,-3.5817 8,-8c0,-4.4183 -3.5817,-8 -8,-8c-0.5523,0 -1,-0.44772 -1,-1zm1.7071,5.2929l3,3c0.3906,0.3906 0.3906,1.0237 0,1.4142l-3,3.0001c-0.3905,0.3905 -1.0237,0.3905 -1.4142,0c-0.3905,-0.3905 -0.3905,-1.0237 0,-1.4142l1.293,-1.293l-10.5859,0c-0.55229,0 -1,-0.4477 -1,-1c0,-0.5523 0.44771,-1 1,-1l10.5858,0l-1.2929,-1.2929c-0.3905,-0.3905 -0.3905,-1.0237 0,-1.4142c0.3905,-0.3905 1.0237,-0.3905 1.4142,0z" clip-rule="evenodd" fill-rule="evenodd"/>
 </g>

</svg>