<svg width="30" height="30" viewBox="0 0 30 30" fill="none" xmlns="http://www.w3.org/2000/svg">
<path fill-rule="evenodd" clip-rule="evenodd" d="M15 6C15 5.44772 15.4477 5 16 5C21.5228 5 26 9.47715 26 15C26 20.5228 21.5228 25 16 25C15.4477 25 15 24.5523 15 24C15 23.4477 15.4477 23 16 23C20.4183 23 24 19.4183 24 15C24 10.5817 20.4183 7 16 7C15.4477 7 15 6.55228 15 6ZM16.7071 11.2929L19.7071 14.2929C20.0977 14.6835 20.0977 15.3166 19.7071 15.7071L16.7071 18.7072C16.3166 19.0977 15.6834 19.0977 15.2929 18.7072C14.9024 18.3167 14.9024 17.6835 15.2929 17.293L16.5859 16L6 16C5.44771 16 5 15.5523 5 15C5 14.4477 5.44771 14 6 14L16.5858 14L15.2929 12.7071C14.9024 12.3166 14.9024 11.6834 15.2929 11.2929C15.6834 10.9024 16.3166 10.9024 16.7071 11.2929Z" fill="white"/>
</svg>
