<svg width="30" height="30" viewBox="0 0 30 30" fill="none" xmlns="http://www.w3.org/2000/svg">
<path fill-rule="evenodd" clip-rule="evenodd" d="M9.99985 4C8.89528 4 7.99985 4.89543 7.99985 6V23C7.99985 24.1046 8.89528 25 9.99985 25H19.9998C21.1044 25 21.9998 24.1046 21.9998 23V6C21.9998 4.89543 21.1044 4 19.9998 4H9.99985ZM10.9998 6C10.4476 6 9.99985 6.44772 9.99985 7V19C9.99985 19.5523 10.4476 20 10.9998 20H18.9998C19.5521 20 19.9998 19.5523 19.9998 19V7C19.9998 6.44772 19.5521 6 18.9998 6H10.9998Z" fill="#E31E24"/>
</svg>
