<svg width="16" height="15" viewBox="0 0 16 15" fill="none" xmlns="http://www.w3.org/2000/svg">
<path fill-rule="evenodd" clip-rule="evenodd" d="M11.2353 6.61765C11.2353 9.1679 9.1679 11.2353 6.61765 11.2353C4.06739 11.2353 2 9.1679 2 6.61765C2 4.06739 4.06739 2 6.61765 2C9.1679 2 11.2353 4.06739 11.2353 6.61765ZM10.8351 11.7175C9.69005 12.6655 8.22039 13.2353 6.61765 13.2353C2.96282 13.2353 0 10.2725 0 6.61765C0 2.96282 2.96282 0 6.61765 0C10.2725 0 13.2353 2.96282 13.2353 6.61765C13.2353 7.94721 12.8432 9.18519 12.1683 10.2223L14.8248 12.8787C15.2153 13.2692 15.2153 13.9024 14.8248 14.2929C14.4342 14.6834 13.8011 14.6834 13.4105 14.2929L10.8351 11.7175Z" fill="#E31E24"/>
</svg>
