<svg width="30" height="30" viewBox="0 0 30 30" fill="none" xmlns="http://www.w3.org/2000/svg">
<path fill-rule="evenodd" clip-rule="evenodd" d="M6 9.69971V19.7173C6 20.1215 6.33489 20.4564 6.73913 20.4564H23.2609C23.6651 20.4564 24 20.1215 24 19.7173V9.69985L17.3016 15.1738C16.6519 15.7483 15.7984 16 15.0001 16C14.2018 16 13.3483 15.7483 12.6985 15.1738L6 9.69971ZM22.2545 8.54337H7.74563L13.9807 13.6387C13.993 13.6487 14.0051 13.6591 14.0169 13.6697C14.2344 13.8655 14.589 14 15.0001 14C15.4111 14 15.7658 13.8655 15.9833 13.6697C15.9951 13.6591 16.0072 13.6487 16.0195 13.6387L22.2545 8.54337ZM5.86957 6.54337C5.38145 6.54337 4.89698 6.71044 4.53202 7.07539C4.16707 7.44034 4 7.92481 4 8.41293V19.7173C4 21.2261 5.23032 22.4564 6.73913 22.4564H23.2609C24.7697 22.4564 26 21.2261 26 19.7173V8.41293C26 7.92481 25.8329 7.44034 25.468 7.07539C25.103 6.71044 24.6186 6.54337 24.1304 6.54337H5.86957Z" fill="white"/>
</svg>
