<svg width="31" height="31" viewBox="0 0 31 31" fill="none" xmlns="http://www.w3.org/2000/svg">
<path d="M23 12.1841C22.5587 12.3852 22.0844 12.5202 21.587 12.5816C22.0949 12.2693 22.4854 11.7743 22.6686 11.1849C22.1929 11.4743 21.6663 11.6845 21.106 11.7973C20.6572 11.3062 20.0176 11 19.3099 11C17.9508 11 16.8489 12.1304 16.8489 13.5247C16.8489 13.7227 16.8706 13.9154 16.9125 14.1003C14.8673 13.9944 13.0541 12.9899 11.84 11.462C11.6284 11.8349 11.5072 12.2685 11.5072 12.7313C11.5072 13.6069 11.7959 14.3796 12.4564 14.8324C12.0532 14.8194 11.9448 14.7058 11.1967 14.517C11.1967 14.5277 11.1967 14.5377 11.1967 14.5485C11.1967 15.7717 12.1901 16.7916 13.3159 17.0241C13.1095 17.0817 12.9643 17.1123 12.7399 17.1123C12.5813 17.1123 12.4639 17.0962 12.3136 17.0671C12.627 18.0701 13.5538 18.7999 14.6302 18.8206C13.7879 19.4974 12.7362 19.9011 11.5827 19.9011C11.3837 19.9011 11.193 19.8888 11 19.8658C12.0891 20.5818 13.3847 21 14.7746 21C19.301 21 21.7777 17.153 21.7777 13.8171C21.7777 13.7074 21.7762 13.5992 21.771 13.4902C22.2527 13.1349 22.6701 12.6898 23 12.1841Z" fill="white"/>
</svg>
