<svg width="285" height="385" viewBox="0 0 285 385" fill="none" xmlns="http://www.w3.org/2000/svg">
<path fill-rule="evenodd" clip-rule="evenodd" d="M285 135.85C285 194.632 197.53 322.834 159.65 375.598C151.148 387.441 133.852 387.441 125.35 375.598C87.4702 322.834 0 194.632 0 135.85C0 60.8221 63.7994 0 142.5 0C221.201 0 285 60.8221 285 135.85ZM228 142.5C228 189.72 189.72 228 142.5 228C95.2797 228 57 189.72 57 142.5C57 95.2797 95.2797 57 142.5 57C189.72 57 228 95.2797 228 142.5ZM89.6243 185.951C89.6243 185.951 80.4039 131.552 125.668 104.214C173.233 75.4855 203.624 108.677 203.624 108.677C203.624 108.677 163.109 88.8704 125.668 127.647C125.668 127.647 133.771 127.368 142.992 126.81C142.992 126.81 100.242 135.737 89.6243 185.951ZM185.331 146.631C185.947 126.7 158.835 125.212 158.835 125.212C170.77 128.905 173.635 135.494 173.513 140.298C173.119 155.834 153.899 154.897 153.899 154.897V109.775L125.416 175.436C125.416 175.436 184.265 181.182 185.331 146.631Z" fill="#F5F6F7"/>
</svg>
