<svg width="16" height="16" viewBox="0 0 16 16" fill="none" xmlns="http://www.w3.org/2000/svg">
<path fill-rule="evenodd" clip-rule="evenodd" d="M11.2353 7.56891C11.2353 10.1192 9.1679 12.1866 6.61765 12.1866C4.06739 12.1866 2 10.1192 2 7.56891C2 5.01865 4.06739 2.95126 6.61765 2.95126C9.1679 2.95126 11.2353 5.01865 11.2353 7.56891ZM10.8351 12.6688C9.69005 13.6168 8.22039 14.1866 6.61765 14.1866C2.96282 14.1866 0 11.2237 0 7.56891C0 3.91408 2.96282 0.951263 6.61765 0.951263C10.2725 0.951263 13.2353 3.91408 13.2353 7.56891C13.2353 8.89847 12.8432 10.1364 12.1683 11.1735L14.8248 13.8299C15.2153 14.2205 15.2153 14.8536 14.8248 15.2442C14.4342 15.6347 13.8011 15.6347 13.4105 15.2442L10.8351 12.6688Z" fill="#BDBDBD"/>
</svg>
