<svg width="60" height="84" viewBox="0 0 60 84" fill="none" xmlns="http://www.w3.org/2000/svg">
<path d="M60 28.6C60 41.1023 41.2049 68.5213 33.3681 79.4105C31.6927 81.7384 28.3073 81.7384 26.632 79.4105C18.7952 68.5213 0 41.1023 0 28.6C0 12.8047 13.4315 0 30 0C46.5685 0 60 12.8047 60 28.6Z" fill="#E31E24"/>
<circle cx="30.0001" cy="30" r="18" fill="white"/>
<path d="M18.8684 39.1475C18.8684 39.1475 16.9273 27.6952 26.4566 21.9397C36.4702 15.8917 42.8683 22.8793 42.8683 22.8793C42.8683 22.8793 34.3389 18.7096 26.4566 26.873C26.4566 26.873 28.1625 26.8142 30.1036 26.6968C30.1036 26.6968 21.1037 28.5762 18.8684 39.1475Z" fill="#E31E24"/>
<path d="M39.0172 30.8697C39.1467 26.6736 33.439 26.3605 33.439 26.3605C35.9516 27.1379 36.5547 28.5251 36.5291 29.5365C36.4462 32.8072 32.3998 32.6098 32.3998 32.6098V23.1105L26.4035 36.9339C26.4035 36.9339 38.7926 38.1435 39.0172 30.8697Z" fill="#E31E24"/>
</svg>
