<svg width="211" height="211" viewBox="0 0 211 211" fill="none" xmlns="http://www.w3.org/2000/svg">
<path fill-rule="evenodd" clip-rule="evenodd" d="M17.5 105.252C17.5 56.6514 56.8989 17.2524 105.5 17.2524C110.194 17.2524 114 13.4469 114 8.75244C114 4.05802 110.194 0.252441 105.5 0.252441C47.5101 0.252441 0.5 47.2625 0.5 105.252C0.5 163.242 47.5101 210.252 105.5 210.252C163.49 210.252 210.5 163.242 210.5 105.252C210.5 100.558 206.694 96.7524 202 96.7524C197.306 96.7524 193.5 100.558 193.5 105.252C193.5 153.853 154.101 193.252 105.5 193.252C56.8989 193.252 17.5 153.853 17.5 105.252ZM172.478 64.5035C175.517 60.9259 175.081 55.5617 171.504 52.5222C167.926 49.4828 162.562 49.919 159.522 53.4966L104.21 118.602L69.5461 83.5253C66.2463 80.1863 60.8645 80.1544 57.5255 83.4542C54.1864 86.7539 54.1545 92.1357 57.4543 95.4748L98.6373 137.148C100.312 138.843 102.622 139.757 105.003 139.668C107.384 139.578 109.618 138.493 111.161 136.677L172.478 64.5035Z" fill="white"/>
</svg>
