<svg width="400" height="400" viewBox="0 0 400 400" fill="none" xmlns="http://www.w3.org/2000/svg">
<path d="M17.938 350.49C17.938 350.49 -11.714 175.272 133.851 87.214C286.814 -5.32 384.547 101.59 384.547 101.59C384.547 101.59 254.257 37.793 133.851 162.692C133.851 162.692 159.909 161.793 189.561 159.996C189.561 159.996 52.083 188.75 17.938 350.49Z" fill="#E31E24"/>
<path d="M326.354 223.68C328.364 160.57 239.826 155.861 239.826 155.861C278.802 167.554 288.157 188.416 287.759 203.628C286.474 252.82 223.706 249.851 223.706 249.851V106.981L130.692 314.885C130.692 314.885 322.871 333.077 326.354 223.68Z" fill="#E31E24"/>
</svg>
