<svg width="31" height="31" viewBox="0 0 31 31" fill="none" xmlns="http://www.w3.org/2000/svg">
<path d="M21.6693 11.6256C21.773 11.2731 21.6693 11.0166 21.2099 11.0166H19.6826C19.2975 11.0166 19.1189 11.2405 19.0153 11.4811C19.0153 11.4811 18.2296 13.531 17.1323 14.8601C16.7765 15.2443 16.6133 15.3722 16.4208 15.3722C16.3171 15.3722 16.1834 15.2443 16.1834 14.8918V11.6089C16.1834 11.1929 16.065 11 15.7387 11H13.3368C13.0994 11 12.9516 11.1921 12.9516 11.3843C12.9516 11.7844 13.4999 11.8805 13.5595 13.0015V15.4357C13.5595 15.9644 13.4705 16.0605 13.278 16.0605C12.7591 16.0605 11.4986 13.9947 10.743 11.6407C10.5945 11.177 10.4461 11.0008 10.0609 11.0008H8.5189C8.07423 11.0008 8 11.2247 8 11.4652C8 11.8979 8.5189 14.0756 10.4166 16.9584C11.6771 18.9281 13.4705 19.9849 15.0868 19.9849C16.065 19.9849 16.1841 19.7443 16.1841 19.3442V17.8548C16.1841 17.3744 16.273 17.2943 16.5846 17.2943C16.8073 17.2943 17.2072 17.4221 18.1119 18.3669C19.1497 19.4879 19.3276 20 19.906 20H21.4333C21.878 20 22.086 19.7595 21.9669 19.295C21.8332 18.8306 21.3297 18.1581 20.677 17.357C20.3213 16.9085 19.7877 16.4123 19.6245 16.1717C19.4018 15.8517 19.4614 15.7231 19.6245 15.4349C19.6084 15.4372 21.4767 12.5862 21.6693 11.6256Z" fill="white"/>
</svg>
