<svg width="260" height="151" viewBox="0 0 260 151" fill="none" xmlns="http://www.w3.org/2000/svg">
<path d="M131.96 3.51349L131.874 3.52093V20.5711L147.56 33.9029L177.925 17.1307V0L147.56 16.7722L131.96 3.51349Z" fill="#F7C81A"/>
<path d="M131.96 26.3673L131.874 26.3748V43.4249L147.56 56.7568L177.925 39.9845V22.8538L147.56 39.6261L131.96 26.3673Z" fill="#F7C81A"/>
<path d="M131.96 48.9646L131.874 48.9721V66.0222L147.56 79.3541L177.925 62.5818V45.4511L147.56 62.2234L131.96 48.9646Z" fill="#F7C81A"/>
<path d="M153.878 82.7446C147.045 89.5509 137.961 93.2994 128.297 93.2994C118.634 93.2994 109.55 89.5509 102.717 82.7446C95.884 75.9383 92.1209 66.8887 92.1209 57.2631C92.1209 47.6374 95.884 38.5881 102.717 31.7816C109.299 25.2249 117.971 21.5077 127.236 21.2434V11.2326C102.198 11.7945 82.0745 32.1873 82.0745 57.2631C82.0745 82.6925 102.769 103.307 128.297 103.307C148.787 103.307 166.16 90.0261 172.22 71.6352L155.752 80.7315C155.156 81.4218 154.531 82.0938 153.878 82.7446Z" fill="white"/>
<path d="M2.75648 142.254C2.38475 142.254 2.09829 142.184 1.8971 142.045C1.69591 141.907 1.59518 141.709 1.59518 141.452C1.59518 141.03 1.80153 140.752 2.21447 140.619C2.55503 140.506 2.7539 140.436 2.81058 140.41C2.86699 140.385 2.9265 140.325 2.98858 140.233C3.11223 140.068 3.17432 139.806 3.17432 139.446V124.005C3.17432 123.645 3.11249 123.383 2.98858 123.219C2.9265 123.126 2.86673 123.067 2.81058 123.041C2.75364 123.016 2.55503 122.946 2.21447 122.833C1.80127 122.699 1.59518 122.422 1.59518 122C1.59518 121.743 1.69591 121.545 1.8971 121.406C2.09829 121.268 2.38475 121.198 2.75648 121.198H10.4682C10.8397 121.198 11.1264 121.268 11.3278 121.406C11.529 121.545 11.6298 121.743 11.6298 122C11.6298 122.422 11.4229 122.7 11.0105 122.833C10.6697 122.946 10.4705 123.016 10.4144 123.041C10.3574 123.067 10.2982 123.126 10.2364 123.219C10.1125 123.384 10.0504 123.645 10.0504 124.005V139.446C10.0504 140.022 10.2 140.362 10.4994 140.464L10.9793 140.619C11.3716 140.742 11.5679 141.02 11.5679 141.452C11.5679 141.987 11.2011 142.254 10.4682 142.254L2.75648 142.254ZM16.1979 127.306L20.8745 139.493C20.9984 139.822 21.1275 140.071 21.262 140.241C21.3959 140.41 21.5713 140.542 21.7883 140.634C22.0052 140.737 22.1445 140.814 22.2063 140.865C22.3509 141.01 22.4233 141.2 22.4233 141.436C22.4233 141.981 22.0363 142.254 21.262 142.254H13.4727C13.1012 142.254 12.8142 142.177 12.6131 142.023C12.4119 141.868 12.3111 141.647 12.3111 141.359C12.3111 141.03 12.502 140.773 12.8843 140.588C13.1218 140.475 13.2815 140.38 13.3642 140.303C13.4467 140.225 13.493 140.12 13.5036 139.987C13.5036 139.915 13.4624 139.75 13.3799 139.493L11.3977 133.6C11.2119 133.055 11.1189 132.593 11.1189 132.212C11.1189 131.852 11.2683 131.462 11.5682 131.04L15.2692 125.841C15.6198 125.358 15.7955 124.854 15.7955 124.33C15.7955 124.042 15.718 123.774 15.5634 123.527C15.4089 123.281 15.202 123.106 14.9439 123.003L14.3864 122.772C14.0356 122.628 13.8601 122.386 13.8601 122.047C13.8601 121.769 13.9683 121.543 14.1852 121.368C14.3297 121.255 14.567 121.198 14.8978 121.198H20.4106C20.7717 121.198 21.053 121.278 21.2545 121.437C21.4557 121.597 21.5564 121.82 21.5564 122.108C21.5564 122.54 21.3186 122.849 20.8441 123.034L20.0231 123.358C19.6826 123.481 19.249 123.759 18.7222 124.191C18.3299 124.52 17.8448 125.07 17.2667 125.841L16.1979 127.306Z" fill="white"/>
<path d="M29.2421 125.116L30.0317 128.309L27.2907 138.274C27.208 138.562 27.1668 138.829 27.1668 139.076C27.1668 139.724 27.4713 140.186 28.0805 140.464L28.6226 140.711C28.9631 140.865 29.1334 141.123 29.1334 141.482C29.1334 141.997 28.7565 142.254 28.003 142.254H24.0701C23.6881 142.254 23.3859 142.174 23.1639 142.015C22.9421 141.855 22.831 141.637 22.831 141.359C22.831 141.061 23.058 140.814 23.5127 140.618C23.9359 140.433 24.2481 140.266 24.4496 140.117C24.6508 139.968 24.8445 139.765 25.0302 139.508C25.319 139.086 25.5568 138.526 25.7428 137.826L29.2421 125.116ZM30.3104 121.198H36.5515L40.8563 139.323C40.9388 139.642 41.032 139.925 41.1351 140.172C41.2281 140.367 41.4344 140.526 41.7543 140.65C42.023 140.763 42.2088 140.876 42.3118 140.989C42.4149 141.102 42.4669 141.257 42.4669 141.452C42.4669 141.987 42.0645 142.254 41.2592 142.254H33.5318C33.2221 142.254 32.9743 142.18 32.7886 142.03C32.6026 141.881 32.5099 141.683 32.5099 141.437C32.5099 141.231 32.5508 141.077 32.6335 140.974C32.7159 140.871 32.9017 140.742 33.191 140.588C33.3973 140.485 33.5416 140.372 33.6248 140.249C33.7072 140.125 33.7484 139.971 33.7484 139.786C33.7484 139.611 33.7327 139.457 33.7021 139.323L33.2064 137.086H28.8861L29.3042 135.251H32.7729L29.9235 122.71L30.3104 121.198Z" fill="white"/>
<path d="M48.4463 140.881V142.501C47.3007 142.357 46.3195 142.105 45.5042 141.745C44.5752 141.334 43.8552 140.786 43.3439 140.102C42.8328 139.418 42.5772 138.655 42.5772 137.812C42.5772 136.948 42.856 136.225 43.4134 135.644C43.9709 135.063 44.6626 134.773 45.4887 134.773C46.3968 134.773 47.1505 135.133 47.7492 135.853C48.1727 136.367 48.3842 136.917 48.3842 137.503C48.3842 137.925 48.276 138.336 48.0591 138.737C47.8422 139.138 47.5529 139.468 47.1917 139.725C46.8615 139.961 46.6964 140.141 46.6964 140.265C46.6964 140.429 46.8718 140.573 47.2229 140.697C47.5738 140.819 47.9818 140.881 48.4463 140.881ZM48.4463 121.013V122.57C48.0439 122.663 47.7546 122.761 47.5794 122.864C47.4658 122.925 47.3703 123.008 47.2927 123.111C47.2154 123.214 47.1768 123.301 47.1768 123.373C47.1871 123.537 47.2953 123.702 47.5022 123.866L48.2147 124.437C48.5553 124.715 48.7253 125.203 48.7253 125.903C48.7253 126.654 48.4545 127.296 47.9125 127.831C47.3705 128.366 46.7172 128.633 45.9537 128.633C45.1894 128.633 44.5495 128.358 44.0335 127.808C43.517 127.258 43.2594 126.576 43.2594 125.764C43.2594 125.064 43.4425 124.399 43.8088 123.766C44.1754 123.134 44.6888 122.596 45.3499 122.154C46.1131 121.64 47.1456 121.259 48.4463 121.013ZM53.1074 131.487C54.0057 131.754 54.6765 131.993 55.1206 132.204C55.5645 132.415 55.9568 132.674 56.2974 132.983C56.7516 133.405 57.1127 133.939 57.3811 134.587C57.6496 135.235 57.7838 135.909 57.7838 136.608C57.7838 138.202 57.2366 139.518 56.1423 140.557C55.4712 141.195 54.6531 141.681 53.6881 142.015C52.7226 142.349 51.6617 142.516 50.5056 142.516L49.824 142.501V140.881C50.402 140.716 50.8201 140.475 51.0783 140.156C51.2333 139.971 51.3415 139.773 51.4036 139.562C51.4655 139.351 51.4964 139.071 51.4964 138.721V134.294C51.4964 133.862 51.4755 133.549 51.4345 133.353C51.3931 133.158 51.3003 132.968 51.1558 132.783C50.8668 132.402 50.4123 132.196 49.7931 132.165C49.3799 132.145 49.1063 132.094 48.9723 132.011C48.7449 131.867 48.6318 131.651 48.6318 131.363C48.6318 131.076 48.7114 130.875 48.8719 130.762C49.0316 130.649 49.3337 130.572 49.7776 130.53C50.9337 130.428 51.5121 129.847 51.5121 128.787L51.4964 128.186V124.699C51.4964 124.052 51.3727 123.571 51.1249 123.257C50.8771 122.943 50.4435 122.715 49.824 122.57V120.935H50.2575C51.2488 120.935 52.2038 121.074 53.1224 121.352C54.041 121.63 54.8259 122.015 55.4764 122.509C56.1163 122.993 56.6042 123.566 56.9399 124.229C57.2755 124.892 57.4432 125.604 57.4432 126.365C57.4432 127.733 57.0043 128.88 56.1269 129.805C55.7451 130.206 55.3396 130.525 54.9112 130.762C54.4828 130.998 53.8818 131.24 53.1074 131.487Z" fill="white"/>
<path d="M63.0449 125.116L63.8345 128.309L61.0936 138.274C61.0109 138.562 60.9696 138.829 60.9696 139.076C60.9696 139.724 61.2741 140.186 61.8834 140.464L62.4254 140.711C62.7659 140.865 62.9362 141.123 62.9362 141.482C62.9362 141.997 62.5593 142.254 61.8058 142.254H57.8724C57.4904 142.254 57.1882 142.174 56.9662 142.015C56.7444 141.855 56.6333 141.637 56.6333 141.359C56.6333 141.061 56.8603 140.814 57.315 140.618C57.7382 140.433 58.0504 140.266 58.2519 140.117C58.4531 139.968 58.6468 139.765 58.8325 139.508C59.1213 139.086 59.3591 138.526 59.5451 137.826L63.0449 125.116ZM64.1135 121.198H70.3545L74.6594 139.323C74.7418 139.642 74.8351 139.925 74.9381 140.172C75.0311 140.367 75.2375 140.526 75.5574 140.65C75.8261 140.763 76.0118 140.876 76.1149 140.989C76.2179 141.102 76.27 141.257 76.27 141.452C76.27 141.987 75.8676 142.254 75.0623 142.254H67.3349C67.0252 142.254 66.7774 142.18 66.5917 142.03C66.4057 141.881 66.3129 141.683 66.3129 141.437C66.3129 141.231 66.3539 141.077 66.4366 140.974C66.519 140.871 66.7048 140.742 66.994 140.588C67.2004 140.485 67.3446 140.372 67.4279 140.249C67.5103 140.125 67.5515 139.971 67.5515 139.786C67.5515 139.611 67.5358 139.457 67.5051 139.323L67.0095 137.086H62.6892L63.1073 135.251H66.576L63.7266 122.71L64.1135 121.198Z" fill="white"/>
<path d="M85.3566 121.102V139.343C85.3566 139.704 85.437 139.94 85.5985 140.053C85.76 140.165 86.0024 140.279 86.3255 140.396C86.6194 140.494 86.8515 140.613 87.0228 140.755C87.1941 140.896 87.2799 141.118 87.2799 141.42C87.2799 141.752 87.1552 141.974 86.9056 142.086C86.6557 142.198 86.2716 142.254 85.7528 142.254H77.9257C77.4851 142.254 77.1642 142.193 76.964 142.071C76.7633 141.949 76.6626 141.723 76.6626 141.391C76.6626 141.011 76.7777 140.765 77.0078 140.652C77.2378 140.54 77.4653 140.425 77.6907 140.308C77.9746 140.172 78.1408 140.018 78.19 139.848C78.2386 139.677 78.2634 139.392 78.2634 138.992V124.364C78.2634 123.964 78.2386 123.682 78.19 123.516C78.1408 123.35 77.9743 123.194 77.6907 123.048C77.5732 122.989 77.4532 122.935 77.3308 122.887C77.2085 122.838 77.0985 122.779 77.0008 122.711C76.9027 122.643 76.8221 122.553 76.7584 122.44C76.6945 122.328 76.6629 122.175 76.6629 121.98C76.6629 121.638 76.7636 121.407 76.9643 121.285C77.1644 121.163 77.4854 121.102 77.9259 121.102L85.3566 121.102ZM86.2667 121.102H92.5812V126.105C92.5812 126.963 92.5348 127.577 92.4418 127.948C92.3488 128.319 92.0719 128.504 91.6121 128.504C91.3771 128.504 91.1935 128.419 91.0613 128.248C90.9292 128.077 90.8065 127.853 90.6942 127.575C90.5814 127.297 90.4665 126.973 90.349 126.602C90.2316 126.232 90.07 125.837 89.8645 125.417C89.4922 124.637 89.0149 124.057 88.4324 123.677C87.8497 123.296 87.1279 123.087 86.2665 123.048L86.2667 121.102Z" fill="white"/>
<path d="M102.029 121.198V139.323C102.029 139.724 102.106 140.012 102.261 140.187C102.344 140.29 102.421 140.354 102.493 140.38C102.566 140.406 102.803 140.47 103.206 140.572C103.701 140.686 103.949 140.969 103.949 141.421C103.949 141.689 103.815 141.904 103.547 142.069C103.35 142.192 103.025 142.254 102.571 142.254H94.7356C94.3639 142.254 94.0771 142.184 93.8759 142.046C93.6745 141.907 93.5738 141.709 93.5738 141.452C93.5738 141.03 93.7804 140.753 94.1933 140.619C94.5339 140.506 94.7325 140.436 94.7894 140.411C94.8461 140.385 94.9053 140.326 94.9672 140.233C95.0911 140.069 95.1534 139.807 95.1534 139.447V124.005C95.1534 123.646 95.0913 123.383 94.9672 123.219C94.9053 123.126 94.8458 123.067 94.7894 123.042C94.7322 123.016 94.5339 122.947 94.1933 122.833C93.7801 122.7 93.5738 122.422 93.5738 122C93.5738 121.743 93.6745 121.545 93.8759 121.407C94.0771 121.268 94.3639 121.198 94.7356 121.198L102.029 121.198ZM103.345 134.186V132.536C103.789 132.433 104.102 132.325 104.282 132.212C104.463 132.099 104.62 131.924 104.755 131.687C104.972 131.286 105.08 130.746 105.08 130.067V125.131C105.08 124.648 105.043 124.288 104.972 124.051C104.899 123.815 104.755 123.599 104.538 123.403C104.238 123.116 103.836 122.936 103.33 122.864V121.198C105.457 121.198 107.026 121.398 108.038 121.799C109.204 122.262 110.128 122.972 110.81 123.928C111.501 124.905 111.847 126.103 111.847 127.522C111.847 129.106 111.496 130.402 110.794 131.409C110.092 132.407 109.111 133.142 107.852 133.616C106.809 133.996 105.307 134.186 103.345 134.186Z" fill="white"/>
<path d="M121.453 122.447C120.926 122.633 120.555 122.885 120.338 123.203C120.121 123.522 120.013 123.99 120.013 124.607V138.397C120.013 139.302 120.137 139.94 120.384 140.31C120.581 140.619 120.937 140.84 121.453 140.973V142.67C119.161 142.485 117.241 141.627 115.692 140.094C113.679 138.099 112.673 135.318 112.673 131.749C112.673 129.96 112.938 128.343 113.47 126.898C114.001 125.453 114.789 124.227 115.832 123.219C116.626 122.447 117.483 121.861 118.402 121.46C119.321 121.059 120.338 120.833 121.453 120.781V122.447ZM122.723 122.447V120.781C123.838 120.833 124.857 121.059 125.781 121.46C126.705 121.861 127.565 122.448 128.36 123.219C130.466 125.265 131.519 128.109 131.519 131.749C131.519 135.318 130.512 138.099 128.499 140.094C126.951 141.637 125.025 142.495 122.723 142.67V140.974C122.991 140.912 123.201 140.832 123.35 140.735C123.5 140.637 123.637 140.495 123.761 140.31C124.04 139.889 124.179 139.251 124.179 138.398V124.607C124.179 124.062 124.086 123.63 123.9 123.311C123.776 123.095 123.629 122.926 123.459 122.802C123.288 122.679 123.043 122.56 122.723 122.447Z" fill="white"/>
<path d="M140.917 137.997C138.225 137.997 136.194 137.448 134.823 136.351C133.452 135.254 132.767 133.628 132.767 131.473C132.767 129.318 133.448 127.689 134.809 126.587C136.169 125.485 138.205 124.934 140.917 124.934H141.549V126.763C140.863 126.802 140.376 127.026 140.088 127.436C139.799 127.845 139.654 128.499 139.654 129.396V133.536C139.654 134.433 139.799 135.091 140.088 135.51C140.376 135.93 140.863 136.159 141.549 136.198V137.997L140.917 137.997ZM142.444 124.364C142.444 123.984 142.42 123.706 142.371 123.53C142.322 123.355 142.155 123.194 141.871 123.048C141.617 122.93 141.384 122.816 141.174 122.704C140.963 122.592 140.858 122.336 140.858 121.936C140.858 121.624 140.959 121.407 141.159 121.285C141.36 121.163 141.681 121.102 142.121 121.102H149.875C150.315 121.102 150.636 121.163 150.836 121.285C151.037 121.407 151.138 121.624 151.138 121.936C151.138 122.336 151.032 122.592 150.822 122.704C150.611 122.816 150.374 122.93 150.109 123.048C149.835 123.194 149.671 123.355 149.617 123.53C149.564 123.706 149.537 123.984 149.537 124.364V139.343C149.537 139.704 149.617 139.94 149.779 140.052C149.94 140.165 150.183 140.279 150.506 140.396C150.809 140.494 151.047 140.613 151.218 140.755C151.389 140.896 151.475 141.118 151.475 141.42C151.475 141.752 151.348 141.974 151.093 142.086C150.839 142.198 150.452 142.254 149.933 142.254H142.063C141.534 142.254 141.145 142.198 140.895 142.086C140.646 141.974 140.521 141.752 140.521 141.42C140.521 141.118 140.606 140.896 140.778 140.755C140.949 140.613 141.186 140.494 141.49 140.396C141.803 140.279 142.041 140.165 142.202 140.052C142.364 139.94 142.444 139.704 142.444 139.343L142.444 124.364ZM150.448 136.198C151.133 136.159 151.62 135.93 151.909 135.51C152.198 135.091 152.342 134.433 152.342 133.536V129.396C152.342 128.499 152.198 127.845 151.909 127.436C151.62 127.026 151.133 126.802 150.448 126.763V124.934H151.079C153.781 124.934 155.815 125.485 157.181 126.587C158.546 127.689 159.229 129.318 159.229 131.473C159.229 133.628 158.541 135.254 157.166 136.351C155.791 137.448 153.761 137.997 151.079 137.997H150.448V136.198Z" fill="white"/>
<path d="M168.92 121.848C168.92 122.189 168.829 122.426 168.648 122.557C168.467 122.689 168.298 122.823 168.141 122.96C167.838 123.243 167.686 123.603 167.686 124.042V139.226C167.686 139.646 167.747 139.955 167.87 140.155C167.992 140.355 168.117 140.511 168.244 140.623C168.371 140.735 168.496 140.845 168.619 140.952C168.741 141.059 168.802 141.244 168.802 141.508C168.802 141.781 168.721 141.974 168.56 142.086C168.398 142.198 168.136 142.254 167.775 142.254H160.432C159.991 142.254 159.67 142.193 159.47 142.071C159.27 141.949 159.169 141.722 159.169 141.391C159.169 141.01 159.284 140.764 159.514 140.652C159.744 140.54 159.972 140.425 160.197 140.308C160.481 140.172 160.647 140.018 160.696 139.847C160.745 139.677 160.77 139.392 160.77 138.992V124.364C160.77 123.964 160.745 123.681 160.696 123.515C160.647 123.35 160.481 123.194 160.197 123.047C160.08 122.989 159.959 122.935 159.837 122.886C159.715 122.838 159.605 122.779 159.507 122.711C159.409 122.643 159.328 122.552 159.265 122.44C159.201 122.328 159.169 122.175 159.169 121.979C159.169 121.638 159.27 121.407 159.471 121.284C159.671 121.163 159.992 121.101 160.432 121.101H167.892C168.254 121.101 168.516 121.158 168.677 121.27C168.839 121.382 168.92 121.575 168.92 121.848ZM171.108 142.254C170.755 142.254 170.499 142.198 170.337 142.086C170.175 141.974 170.095 141.781 170.095 141.508C170.095 141.322 170.119 141.176 170.168 141.069C170.217 140.962 170.281 140.874 170.359 140.806C170.437 140.737 170.523 140.672 170.616 140.608C170.709 140.545 170.794 140.474 170.873 140.396C171.176 140.133 171.328 139.772 171.328 139.313V129.469L168.582 136.315V131.561L171.328 124.642V124.042C171.328 123.798 171.313 123.591 171.284 123.42C171.255 123.25 171.157 123.096 170.99 122.96C170.834 122.823 170.665 122.689 170.484 122.557C170.302 122.426 170.212 122.189 170.212 121.848C170.212 121.575 170.293 121.382 170.454 121.27C170.616 121.158 170.877 121.102 171.24 121.102H178.626C179.067 121.102 179.387 121.163 179.588 121.285C179.788 121.407 179.889 121.638 179.889 121.98C179.889 122.175 179.86 122.328 179.801 122.44C179.742 122.553 179.664 122.643 179.566 122.711C179.468 122.779 179.358 122.838 179.235 122.887C179.113 122.935 178.994 122.989 178.876 123.048C178.592 123.194 178.426 123.35 178.377 123.516C178.327 123.681 178.303 123.964 178.303 124.364V139.226C178.303 139.548 178.342 139.779 178.421 139.921C178.499 140.062 178.65 140.191 178.876 140.308C179.091 140.425 179.314 140.54 179.544 140.652C179.774 140.765 179.889 141.01 179.889 141.391C179.889 141.723 179.789 141.949 179.588 142.071C179.388 142.193 179.067 142.254 178.626 142.254L171.108 142.254Z" fill="white"/>
<path d="M189.546 142.254H182.236C181.865 142.254 181.578 142.184 181.377 142.045C181.176 141.907 181.075 141.709 181.075 141.452C181.075 141.03 181.282 140.752 181.694 140.619C182.035 140.506 182.234 140.436 182.291 140.41C182.347 140.385 182.407 140.325 182.469 140.233C182.592 140.068 182.654 139.806 182.654 139.446V124.005C182.654 123.645 182.592 123.383 182.469 123.219C182.407 123.126 182.347 123.067 182.291 123.041C182.234 123.016 182.035 122.946 181.694 122.833C181.281 122.699 181.075 122.422 181.075 122C181.075 121.743 181.176 121.545 181.377 121.406C181.578 121.267 181.865 121.198 182.236 121.198H189.948C190.681 121.198 191.048 121.465 191.048 122C191.048 122.432 190.851 122.71 190.459 122.833L189.979 122.987C189.68 123.09 189.53 123.43 189.53 124.005V139.447C189.53 140.023 189.68 140.362 189.979 140.465L190.459 140.619C190.851 140.742 191.048 141.02 191.048 141.452C191.048 141.987 190.681 142.254 189.948 142.254L189.546 142.254ZM190.846 130.731H193.371V124.005C193.371 123.429 193.221 123.09 192.922 122.987L192.426 122.833C192.034 122.709 191.838 122.432 191.838 122C191.838 121.465 192.209 121.198 192.953 121.198H200.664C201.439 121.198 201.826 121.465 201.826 122C201.826 122.422 201.619 122.699 201.206 122.833C200.866 122.946 200.667 123.015 200.61 123.041C200.553 123.067 200.494 123.126 200.432 123.218C200.308 123.383 200.246 123.645 200.246 124.005V139.385C200.246 139.95 200.401 140.294 200.711 140.418L201.206 140.588C201.62 140.721 201.826 141.004 201.826 141.436C201.826 141.981 201.439 142.254 200.664 142.254H192.922C192.199 142.254 191.838 141.981 191.838 141.436C191.838 141.004 192.034 140.721 192.426 140.588L192.922 140.418C193.221 140.325 193.371 139.981 193.371 139.385V132.258H190.846V130.731Z" fill="white"/>
<path d="M208.595 125.116L209.384 128.309L206.643 138.274C206.561 138.562 206.52 138.829 206.52 139.076C206.52 139.724 206.824 140.186 207.433 140.464L207.975 140.711C208.316 140.865 208.486 141.123 208.486 141.482C208.486 141.997 208.11 142.254 207.356 142.254H203.422C203.04 142.254 202.738 142.174 202.516 142.015C202.295 141.855 202.183 141.637 202.183 141.359C202.183 141.061 202.41 140.814 202.865 140.618C203.288 140.433 203.6 140.266 203.802 140.117C204.003 139.968 204.197 139.765 204.383 139.508C204.672 139.086 204.909 138.526 205.095 137.826L208.595 125.116ZM209.663 121.198H215.905L220.209 139.323C220.292 139.642 220.385 139.925 220.488 140.172C220.581 140.367 220.787 140.526 221.107 140.65C221.376 140.763 221.562 140.876 221.665 140.989C221.768 141.102 221.82 141.257 221.82 141.452C221.82 141.987 221.418 142.254 220.612 142.254H212.885C212.575 142.254 212.327 142.18 212.142 142.03C211.955 141.881 211.863 141.683 211.863 141.437C211.863 141.231 211.904 141.077 211.987 140.974C212.069 140.871 212.255 140.742 212.544 140.588C212.75 140.485 212.895 140.372 212.978 140.249C213.06 140.125 213.102 139.971 213.102 139.786C213.102 139.611 213.086 139.457 213.055 139.323L212.56 137.086H208.239L208.657 135.251H212.126L209.277 122.71L209.663 121.198Z" fill="white"/>
<path d="M230.649 142.254H223.34C222.968 142.254 222.681 142.184 222.48 142.045C222.278 141.907 222.178 141.709 222.178 141.452C222.178 141.03 222.385 140.752 222.798 140.619C223.138 140.506 223.336 140.436 223.393 140.41C223.45 140.385 223.509 140.325 223.571 140.233C223.695 140.068 223.757 139.806 223.757 139.446V124.005C223.757 123.645 223.696 123.383 223.571 123.219C223.509 123.126 223.45 123.067 223.393 123.041C223.336 123.016 223.138 122.946 222.798 122.833C222.384 122.699 222.178 122.422 222.178 122C222.178 121.743 222.278 121.545 222.48 121.406C222.681 121.267 222.968 121.198 223.34 121.198H231.051C231.784 121.198 232.15 121.465 232.15 122C232.15 122.432 231.954 122.71 231.562 122.833L231.082 122.987C230.783 123.09 230.633 123.43 230.633 124.005V139.447C230.633 140.023 230.783 140.362 231.082 140.465L231.562 140.619C231.954 140.742 232.15 141.02 232.15 141.452C232.15 141.987 231.784 142.254 231.051 142.254L230.649 142.254ZM231.949 130.731H234.473V124.005C234.473 123.429 234.324 123.09 234.025 122.987L233.529 122.833C233.137 122.709 232.94 122.432 232.94 122C232.94 121.465 233.312 121.198 234.055 121.198H241.767C242.542 121.198 242.928 121.465 242.928 122C242.928 122.422 242.722 122.699 242.309 122.833C241.969 122.946 241.769 123.015 241.713 123.041C241.656 123.067 241.597 123.126 241.535 123.218C241.411 123.383 241.349 123.645 241.349 124.005V139.385C241.349 139.95 241.504 140.294 241.814 140.418L242.309 140.588C242.722 140.721 242.929 141.004 242.929 141.436C242.929 141.981 242.542 142.254 241.767 142.254H234.025C233.301 142.254 232.94 141.981 232.94 141.436C232.94 141.004 233.137 140.721 233.529 140.588L234.025 140.418C234.324 140.325 234.473 139.981 234.473 139.385V132.258H231.949V130.731Z" fill="white"/>
<path d="M252.281 120.781V122.648C251.672 122.74 251.217 123.008 250.918 123.45C250.618 123.892 250.469 124.525 250.469 125.347V138.752C250.469 138.989 250.518 139.238 250.616 139.5C250.714 139.763 250.841 139.986 250.995 140.171C251.16 140.377 251.336 140.524 251.522 140.611C251.708 140.698 251.961 140.757 252.281 140.788V142.67C250.278 142.67 248.539 142.151 247.062 141.112C245.761 140.197 244.781 138.966 244.12 137.418C243.459 135.87 243.129 134.037 243.129 131.919C243.129 130.366 243.343 128.919 243.771 127.576C244.2 126.234 244.822 125.069 245.637 124.082C246.463 123.085 247.451 122.283 248.603 121.676C249.754 121.069 250.861 120.766 251.925 120.766L252.281 120.781ZM253.504 122.663V120.797C254.01 120.879 254.42 120.966 254.735 121.059C255.05 121.151 255.62 121.347 256.446 121.645C256.973 121.83 257.324 121.923 257.499 121.923C257.799 121.923 258.026 121.789 258.181 121.522L258.382 121.152C258.506 120.905 258.738 120.782 259.079 120.782C259.358 120.782 259.572 120.864 259.722 121.029C259.871 121.193 259.946 121.435 259.946 121.753V128.17C259.946 128.582 259.853 128.88 259.667 129.065C259.482 129.25 259.27 129.343 259.032 129.343C258.785 129.343 258.586 129.263 258.436 129.104C258.287 128.944 258.166 128.685 258.073 128.325C257.856 127.512 257.644 126.875 257.438 126.412C256.994 125.435 256.488 124.643 255.92 124.036C255.538 123.625 255.156 123.309 254.774 123.088C254.392 122.866 253.969 122.725 253.504 122.663ZM253.551 142.67V140.788C254.356 140.727 255.202 140.423 256.09 139.878C256.565 139.58 256.989 139.182 257.36 138.683C257.732 138.184 258.01 137.637 258.196 137.04C258.299 136.711 258.421 136.477 258.56 136.338C258.7 136.199 258.883 136.13 259.11 136.13C259.358 136.13 259.564 136.222 259.729 136.407C259.894 136.593 259.977 136.824 259.977 137.102C259.977 137.564 259.799 138.125 259.443 138.783C259.087 139.441 258.63 140.048 258.073 140.603C257.391 141.282 256.692 141.786 255.974 142.115C255.256 142.444 254.449 142.629 253.551 142.67Z" fill="white"/>
</svg>
