<svg width="242" height="49" viewBox="0 0 242 49" fill="none" xmlns="http://www.w3.org/2000/svg">
<path fill-rule="evenodd" clip-rule="evenodd" d="M0.403333 48.8554C0.403333 48.8554 -4.40992 20.4137 19.2185 6.12002C44.0477 -8.90015 59.9118 8.4538 59.9118 8.4538C59.9118 8.4538 38.7629 -1.90155 19.2185 18.3721C19.2185 18.3721 23.4482 18.2264 28.2615 17.9346C28.2615 17.9346 5.94582 22.6018 0.403333 48.8554ZM50.4658 28.2716C50.792 18.0274 36.4204 17.263 36.4204 17.263C42.747 19.1608 44.2653 22.5474 44.2011 25.0166C43.9924 33.0014 33.8039 32.5197 33.8039 32.5197V9.32912L18.7058 43.0763C18.7058 43.0763 49.9003 46.0293 50.4658 28.2716ZM118.352 16.5455C119.667 17.6914 121.413 18.284 123.591 18.3235C125.068 18.347 126.399 18.1316 127.584 17.6781C128.768 17.2238 129.797 16.6093 130.67 15.8347C131.543 15.0604 132.256 14.1651 132.807 13.1496C133.36 12.134 133.738 11.0672 133.945 9.9487C134.151 8.83057 134.216 7.83267 134.139 6.95539C134.034 5.71507 133.659 4.6083 133.017 3.63625C132.374 2.6642 131.518 1.91969 130.448 1.40194C129.378 0.884193 128.128 0.61357 126.699 0.58968C124.377 0.550124 122.324 1.13523 120.539 2.34423C119.475 3.06328 118.587 3.96405 117.877 5.04693C117.168 6.12982 116.673 7.31296 116.395 8.59715C116.116 9.88134 116.026 10.9979 116.122 11.9461C116.294 13.8663 117.038 15.3999 118.352 16.5455ZM126.411 3.83716C128.177 3.91627 129.107 4.94393 129.204 6.91936C129.261 8.11269 129.102 9.41489 128.728 10.8248C128.354 12.2355 127.745 13.3105 126.901 14.0492C126.056 14.7882 125.049 15.134 123.878 15.0866C122.094 15.0314 121.153 14.0002 121.057 11.9927C121.01 11.3684 121.077 10.4872 121.26 9.3491C121.547 7.508 122.137 6.11494 123.029 5.17069C123.921 4.22645 125.049 3.78194 126.411 3.83716ZM82.426 0.500777H78.1497L68.8044 18.1481H74.0437L75.5406 14.9805H80.3648L80.7705 18.1481H85.6864L82.426 0.500777ZM79.8623 11.0935H77.3832L79.3371 6.97224L79.8623 11.0935ZM86.1195 18.1481L89.1739 0.500777H101.043L100.367 4.39916H93.2426L90.8525 18.1481H86.1195ZM114.038 2.18287C112.891 1.07453 111.31 0.512133 109.338 0.512133L102.952 0.499993L99.8979 18.1481H104.631L105.629 12.4062L108.096 12.4164C109.433 12.4164 110.659 12.1842 111.741 11.726C112.838 11.2615 113.735 10.5781 114.406 9.69452C115.082 8.80589 115.474 7.74494 115.572 6.54065C115.713 4.76926 115.196 3.30296 114.038 2.18287ZM108.251 8.54114L106.305 8.52234L107.021 4.38898L109.453 4.39838C109.855 4.42383 110.164 4.54172 110.398 4.75829C110.631 4.97409 110.769 5.26664 110.82 5.64771C110.915 6.47015 110.735 7.13868 110.268 7.69246C109.803 8.24271 109.139 8.52039 108.251 8.54114ZM149.24 6.32485C150.597 6.35736 151.819 6.61232 152.878 7.08268C153.958 7.56283 154.787 8.24506 155.343 9.11098C155.899 9.97924 156.131 10.9862 156.031 12.1043C155.886 13.9313 154.999 15.4172 153.393 16.5169C151.814 17.599 149.835 18.1477 147.512 18.1477H140.206L143.571 0.500384H156.647L155.902 4.38741H148.079L147.711 6.31584L149.24 6.32485ZM149.04 10.2115L146.967 10.2021L146.19 14.2634L147.706 14.2724C148.526 14.2724 149.213 14.066 149.803 13.6407C150.384 13.2224 150.721 12.6847 150.833 11.9954C150.925 11.4573 150.817 11.0449 150.503 10.7324C150.177 10.4085 149.698 10.2381 149.04 10.2115ZM169.95 0.500777L163.218 9.76933L164.836 0.500777H160.09L157.024 18.1481H161.749L168.481 8.8897L166.862 18.1481H171.609L174.663 0.500777H169.95ZM189.03 1.63222C190.283 2.53378 190.858 3.79917 190.738 5.39353C190.622 6.97537 189.616 8.25407 187.746 9.20106C188.308 9.56372 188.743 10.0157 189.046 10.5499C189.453 11.2693 189.628 12.0831 189.563 12.969C189.426 14.852 188.393 16.3007 186.493 17.2755C185.075 18.002 183.415 18.3697 181.559 18.3697C181.499 18.3697 181.441 18.3693 181.382 18.3686L180.807 18.3451C178.928 18.2229 177.421 17.6852 176.316 16.7472C175.194 15.7943 174.634 14.5563 174.653 13.0681L174.657 12.6953H179.823V13.0724C179.823 13.5001 179.968 13.8287 180.264 14.0774C180.569 14.3327 181.028 14.469 181.627 14.4823C182.365 14.498 183.003 14.3378 183.536 14.0124C184.049 13.6994 184.339 13.3015 184.423 12.7951C184.53 12.1893 184.456 11.744 184.207 11.469C183.97 11.2082 183.54 11.0664 182.93 11.0476L179.898 11.0339L180.617 7.26322L183.082 7.27654C183.765 7.26205 184.305 7.10187 184.732 6.7866C185.148 6.47955 185.393 6.03347 185.482 5.42291C185.541 5.02892 185.447 4.74145 185.186 4.51548C184.908 4.27423 184.48 4.14538 183.917 4.13206C183.327 4.12188 182.837 4.24329 182.429 4.51274C182.033 4.77396 181.797 5.1143 181.705 5.55372L181.642 5.85919L176.493 5.88661L176.518 5.48596C176.582 4.45321 176.961 3.52698 177.646 2.73352C178.322 1.94984 179.266 1.33105 180.453 0.893592C181.623 0.462788 182.885 0.252086 184.163 0.268535C186.181 0.301041 187.818 0.759651 189.03 1.63222ZM114.037 30.6637C114.156 29.0693 113.582 27.804 112.329 26.9024C111.117 26.0298 109.48 25.5712 107.462 25.5387C106.184 25.5223 104.922 25.733 103.751 26.1638C102.565 26.6012 101.62 27.22 100.944 28.0037C100.26 28.7971 99.8807 29.7234 99.8164 30.7561L99.7914 31.1568L104.941 31.1294L105.004 30.8239C105.095 30.3845 105.332 30.0441 105.727 29.7829C106.136 29.5135 106.625 29.392 107.216 29.4022C107.779 29.4155 108.206 29.5444 108.485 29.7856C108.745 30.0116 108.84 30.2995 108.781 30.6931C108.692 31.3036 108.447 31.7497 108.03 32.0568C107.603 32.372 107.064 32.5322 106.38 32.5467L103.915 32.5334L103.197 36.3041L106.228 36.3178C106.839 36.3366 107.269 36.4784 107.506 36.7392C107.755 37.0141 107.828 37.4594 107.722 38.0653C107.637 38.5717 107.347 38.9696 106.835 39.2825C106.302 39.608 105.664 39.7682 104.925 39.7525C104.326 39.7392 103.868 39.6029 103.562 39.3475C103.266 39.0988 103.122 38.7703 103.122 38.3426V37.9654H97.9558L97.9514 38.3383C97.933 39.8265 98.4931 41.0645 99.6151 42.0173C100.72 42.9553 102.227 43.493 104.106 43.6152L104.68 43.6387C104.739 43.6395 104.798 43.6399 104.857 43.6399C106.714 43.6399 108.374 43.2722 109.792 42.5457C111.692 41.5709 112.724 40.1222 112.862 38.2392C112.926 37.3533 112.752 36.5395 112.345 35.82C112.042 35.2858 111.607 34.8339 111.045 34.4712C112.915 33.5242 113.92 32.2459 114.037 30.6637ZM203.169 7.20683L204.33 0.500777H209.052L205.985 18.1481H201.275L202.494 11.0939H197.469L196.239 18.1481H191.506L194.56 0.500777H199.306L198.134 7.20683H203.169ZM225.212 4.39916L225.888 0.500777H211.901L208.847 18.1481H222.81L223.487 14.261H214.257L214.832 10.9779H222.926L223.579 7.20683H215.475L215.969 4.39916H225.212ZM76.3865 25.7709H82.3574L76.0317 34.1892L79.6254 43.4182H74.2685L71.948 36.7353H70.5953L69.4235 43.4182H64.691L67.7454 25.7709H72.4909L71.3539 32.3031H72.1055L76.3865 25.7709ZM93.9512 25.7709H89.6749L80.3296 43.4182H85.569L87.0658 40.2507H91.89L92.2958 43.4182H97.2116L93.9512 25.7709ZM91.3875 36.364H88.9085L90.8624 32.2428L91.3875 36.364ZM121.7 25.7709H125.977L129.237 43.4182H124.321L123.916 40.2507H119.091L117.595 43.4182H112.355L121.7 25.7709ZM120.934 36.364H123.413L122.888 32.2428L120.934 36.364ZM150.493 25.7709H144.849L140.488 30.8576L138.486 25.7709H133.307L137.014 34.3103L129.429 43.4182H135.11L139.566 38.2188L141.638 43.4182H146.864L143.051 34.7379L150.493 25.7709ZM160.355 32.372L165.119 32.3858C165.316 28.9479 163.625 27.2972 163.624 27.2968C162.323 26.1552 160.542 25.5595 158.333 25.527C156.83 25.5007 155.433 25.7804 154.168 26.3521C152.906 26.9224 151.796 27.7895 150.871 28.9287C149.954 30.059 149.284 31.4016 148.88 32.9192C148.478 34.425 148.316 35.8392 148.398 37.1191C148.509 39.0808 149.186 40.6634 150.408 41.8227C151.644 42.9941 153.349 43.609 155.479 43.6501C155.546 43.6513 155.614 43.6517 155.681 43.6517C157.131 43.6517 158.501 43.4022 159.755 42.9091C161.077 42.3902 162.161 41.6355 162.977 40.6658C163.795 39.693 164.271 38.5666 164.392 37.3181L164.433 36.9041L159.169 36.9593L159.108 37.2687C158.948 38.0751 158.585 38.7021 158.027 39.1325C157.472 39.5614 156.738 39.7509 155.768 39.729C154.885 39.7 153.718 39.4043 153.77 37.1704C153.77 36.5481 153.889 35.484 154.123 34.0079C154.615 30.8854 155.892 29.3979 158.045 29.4606C158.872 29.4872 159.473 29.6823 159.832 30.0402C160.199 30.4064 160.378 31.0628 160.362 31.9902L160.355 32.372ZM241.984 7.25891L237.22 7.24521L237.227 6.86336C237.243 5.93595 237.065 5.27957 236.697 4.91338C236.338 4.55542 235.737 4.36039 234.91 4.33376C232.757 4.27109 231.48 5.75854 230.989 8.88109C230.754 10.3572 230.635 11.4213 230.635 12.0436C230.583 14.2775 231.75 14.5732 232.634 14.6022C233.603 14.6241 234.337 14.4345 234.893 14.0057C235.45 13.5753 235.814 12.9483 235.973 12.1419L236.034 11.8325L241.298 11.7773L241.257 12.1912C241.136 13.4398 240.66 14.5661 239.842 15.539C239.026 16.5087 237.943 17.2634 236.62 17.7823C235.366 18.2754 233.996 18.5248 232.546 18.5248C232.479 18.5248 232.411 18.5244 232.345 18.5233C230.214 18.4821 228.509 17.8673 227.274 16.6959C226.051 15.5366 225.374 13.954 225.263 11.9923C225.181 10.7124 225.344 9.29818 225.745 7.79233C226.149 6.27472 226.819 4.93218 227.736 3.80191C228.662 2.66263 229.771 1.79554 231.033 1.22531C232.298 0.653517 233.695 0.373886 235.198 0.400126C237.408 0.432632 239.188 1.02832 240.489 2.16995C240.49 2.17073 242.181 3.82149 241.984 7.25891ZM166.161 29.6697L166.851 25.7709H181.33L180.654 29.6697H175.734L173.356 43.4182H168.611L171 29.6697H166.161ZM190.023 25.7709H185.747L176.402 43.4182H181.641L183.138 40.2507H187.962L188.368 43.4182H193.284L190.023 25.7709ZM187.46 36.364H184.98L186.934 32.2428L187.46 36.364ZM205.516 32.477L206.676 25.7709H211.398L208.332 43.4182H203.622L204.84 36.364H199.815L198.586 43.4182H193.852L196.907 25.7709H201.652L200.48 32.477H205.516Z" fill="#E31E24"/>
</svg>
